<svg width="80" height="80" viewBox="0 0 80 80" fill="none" xmlns="http://www.w3.org/2000/svg">
<rect width="80" height="80" rx="40" fill="#23252C"/>
<path fill-rule="evenodd" clip-rule="evenodd" d="M54 40C54 47.732 47.732 54 40 54C32.268 54 26 47.732 26 40C26 32.268 32.268 26 40 26C47.732 26 54 32.268 54 40ZM38.3516 39.1754C38.3516 38.2657 39.089 37.5283 39.9986 37.5283C40.9083 37.5283 41.6457 38.2657 41.6457 39.1754V44.9401C41.6457 45.8497 40.9083 46.5871 39.9986 46.5871C39.089 46.5871 38.3516 45.8497 38.3516 44.9401V39.1754ZM39.9986 33.4111C39.089 33.4111 38.3516 34.1485 38.3516 35.0582C38.3516 35.9678 39.089 36.7053 39.9986 36.7053C40.9083 36.7053 41.6457 35.9678 41.6457 35.0582C41.6457 34.1485 40.9083 33.4111 39.9986 33.4111Z" fill="#FF7253"/>
</svg>
