<svg width="80" height="80" viewBox="0 0 80 80" fill="none" xmlns="http://www.w3.org/2000/svg">
<rect width="80" height="80" rx="40" fill="#23252C"/>
<g clip-path="url(#clip0_175_158)">
<path d="M43.0742 27.25H30.0833C28.525 27.25 27.25 28.525 27.25 30.0833V49.9167C27.25 51.475 28.525 52.75 30.0833 52.75H49.9167C51.475 52.75 52.75 51.475 52.75 49.9167V36.9258C52.75 36.175 52.4525 35.4525 51.9142 34.9283L45.0717 28.0858C44.5475 27.5475 43.825 27.25 43.0742 27.25ZM34.3333 44.25H45.6667C46.4458 44.25 47.0833 44.8875 47.0833 45.6667C47.0833 46.4458 46.4458 47.0833 45.6667 47.0833H34.3333C33.5542 47.0833 32.9167 46.4458 32.9167 45.6667C32.9167 44.8875 33.5542 44.25 34.3333 44.25ZM34.3333 38.5833H45.6667C46.4458 38.5833 47.0833 39.2208 47.0833 40C47.0833 40.7792 46.4458 41.4167 45.6667 41.4167H34.3333C33.5542 41.4167 32.9167 40.7792 32.9167 40C32.9167 39.2208 33.5542 38.5833 34.3333 38.5833ZM34.3333 32.9167H41.4167C42.1958 32.9167 42.8333 33.5542 42.8333 34.3333C42.8333 35.1125 42.1958 35.75 41.4167 35.75H34.3333C33.5542 35.75 32.9167 35.1125 32.9167 34.3333C32.9167 33.5542 33.5542 32.9167 34.3333 32.9167Z" fill="#FF7253"/>
</g>
<defs>
<clipPath id="clip0_175_158">
<rect width="34" height="34" fill="white" transform="translate(23 23)"/>
</clipPath>
</defs>
</svg>
