<svg width="80" height="80" viewBox="0 0 80 80" fill="none" xmlns="http://www.w3.org/2000/svg">
<rect width="80" height="80" rx="40" fill="#23252C"/>
<g clip-path="url(#clip0_175_168)">
<path d="M35.7497 56.7497C35.7497 57.5288 36.3872 58.1663 37.1663 58.1663H42.833C43.6122 58.1663 44.2497 57.5288 44.2497 56.7497V55.333H35.7497V56.7497ZM39.9997 29.833C34.5313 29.833 30.083 34.2813 30.083 39.7497C30.083 43.1213 31.7688 46.0822 34.333 47.8813V51.083C34.333 51.8622 34.9705 52.4997 35.7497 52.4997H44.2497C45.0288 52.4997 45.6663 51.8622 45.6663 51.083V47.8813C48.2305 46.0822 49.9163 43.1213 49.9163 39.7497C49.9163 34.2813 45.468 29.833 39.9997 29.833Z" fill="#FF7253"/>
</g>
<path d="M51.9755 27.2095C51.3725 26.5766 50.3984 26.5766 49.7954 27.2095L49.1924 27.8425C48.5894 28.4754 48.6049 29.4978 49.1924 30.1145L49.2079 30.1308C49.8109 30.7637 50.7849 30.7637 51.3879 30.1308L51.9909 29.4978C52.5785 28.8487 52.5785 27.8425 51.9755 27.2095ZM40.0082 22H39.9928C39.1424 22 38.4621 22.7141 38.4621 23.6067V25.1647C38.4621 26.0573 39.1424 26.7713 39.9928 26.7713H40.0082C40.8586 26.7713 41.5389 26.0573 41.5389 25.1647V23.6067C41.5389 22.7141 40.8586 22 40.0082 22ZM30.8086 27.8262L30.2056 27.1933C29.6026 26.5604 28.6285 26.5604 28.0255 27.1933C27.4225 27.8262 27.4225 28.8487 28.0255 29.4816L28.6285 30.1145C29.2315 30.7475 30.2056 30.7312 30.7931 30.1145C31.4116 29.4654 31.4116 28.4592 30.8086 27.8262Z" fill="#FF7253"/>
<defs>
<clipPath id="clip0_175_168">
<rect width="34" height="34" fill="white" transform="translate(23 27)"/>
</clipPath>
</defs>
</svg>
